<?xml version="1.0" encoding="UTF-8" standalone="no"?>
<!-- Created with Inkscape (http://www.inkscape.org/) -->

<svg
   width="18.786182mm"
   height="8.4666672mm"
   viewBox="0 0 18.786182 8.4666672"
   version="1.1"
   id="svg1"
   xml:space="preserve"
   xmlns="http://www.w3.org/2000/svg"
   xmlns:svg="http://www.w3.org/2000/svg"><defs
     id="defs1" /><g
     id="layer1"
     transform="translate(-92.736074,-99.747922)"><g
       style="fill:none"
       id="g1"
       transform="matrix(0.26458333,0,0,0.26458333,92.736075,99.747917)"><path
         d="M 8.99068,32 C 7.25788,32 5.82335,31.7869 4.68708,31.3609 3.55082,30.9348 2.85486,30.6081 2.5992,30.3808 2.37195,30.182 1.84643,29.6707 1.02264,28.8469 0.852197,28.6764 0.809587,28.5628 0.894807,28.506 0.95162,28.364 1.05104,28.2077 1.19308,28.0373 L 1.747,27.3555 c 0.14204,-0.1988 0.3977,-0.5255 0.76698,-0.98 0.08522,-0.0852 0.18464,-0.1278 0.29827,-0.1278 0.11363,0 0.26986,0.0568 0.46871,0.1704 0.19884,0.142 0.36928,0.2841 0.51132,0.4261 0.0284,0.0284 0.18464,0.1562 0.4687,0.3835 0.31248,0.2557 0.75278,0.4687 1.32091,0.6391 0.56813,0.1989 1.19308,0.2983 1.87483,0.2983 1.7328,0 2.96848,-0.4971 3.70708,-1.4913 0.767,-0.9943 1.1504,-2.4288 1.1504,-4.3036 -0.4829,0.284 -1.1362,0.5113 -1.96,0.6817 C 9.5304,23.194 8.67821,23.265 7.7976,23.265 5.26942,23.265 3.33777,22.1855 2.00266,20.0266 0.667554,17.8677 0,15.1549 0,11.8881 0,10.6099 0.170439,9.0759 0.511318,7.28628 0.880604,5.46826 1.61917,3.80648 2.72703,2.30093 3.86329,0.766977 5.46826,0 7.54194,0 9.502,0 11.1496,0.497114 12.4847,1.49134 V 0.937415 c 0,-0.198845 0.0142,-0.340878 0.0426,-0.426098 0.0568,-0.085219 0.1704,-0.127828 0.3409,-0.127828 l 3.707,0.127828 1.4914,-0.085219 1.0226,-0.042609 h 0.1705 c 0.142,0 0.2556,0.042609 0.3408,0.127828 0.0853,0.056814 0.1279,0.184643 0.1279,0.383489 L 19.6431,2.47137 19.5579,4.26098 19.4727,15.3395 c -0.0568,0.3977 -0.0426,1.8039 0.0426,4.2184 v 1.0653 c -0.0568,3.6928 -0.9658,6.5051 -2.727,8.4367 C 15.0555,31.02 12.4563,32 8.99068,32 Z M 10.3116,16.0213 c 0.8522,0 1.5481,-0.3125 2.0879,-0.9374 v -2.727 L 12.4421,11.3342 12.5273,9.92809 12.4421,8.52197 C 12.1296,8.18109 11.8171,7.91123 11.5047,7.71238 11.1922,7.48513 10.7945,7.3715 10.3116,7.3715 9.20373,7.3715 8.45095,7.69818 8.05326,8.35153 7.65557,8.97647 7.45672,10.1127 7.45672,11.7603 c 0,1.676 0.25566,2.8123 0.76698,3.4088 0.53973,0.5681 1.23569,0.8522 2.0879,0.8522 z"
         fill="#f53e31"
         id="path1"
         style="fill:#ef4444;fill-opacity:1" /><path
         d="m 29.7582,32 c -2.649,0 -4.7329,-0.6887 -6.2517,-2.0662 -1.5188,-1.3775 -2.2781,-3.744 -2.2781,-7.0994 0,-3.2847 1.0066,-5.5805 3.0198,-6.8874 2.0486,-1.3068 4.3797,-2.1015 6.9934,-2.3841 l 2.4901,-0.3179 c 1.66,-0.2472 2.9139,-0.3708 3.7616,-0.3708 V 12.1854 L 37.2284,9.43046 C 37.0518,7.7351 36.6986,6.62252 36.1688,6.09272 35.639,5.5276 34.9149,5.24503 33.9966,5.24503 c -0.6711,0 -1.872,0.40619 -3.6027,1.21855 -1.7307,0.77704 -3.4437,1.74834 -5.139,2.91391 -0.0354,0.03531 -0.106,0.05297 -0.212,0.05297 -0.1412,0 -0.3002,-0.12362 -0.4768,-0.37086 C 24.2836,8.63576 24.054,8.05298 23.8774,7.31126 23.8067,6.99338 23.6478,6.62252 23.4005,6.19868 23.1886,5.77484 23.0827,5.45695 23.0827,5.24503 c 0,-0.21192 0.2119,-0.45916 0.6357,-0.74172 1.978,-1.30684 3.6027,-2.27814 4.8742,-2.9139 C 29.8994,0.953644 31.0297,0.529803 31.9833,0.317883 32.937,0.105961 34.0142,0 35.2151,0 c 3.7793,0 6.5519,1.30684 8.3179,3.92053 0.3532,0.5298 0.6358,1.11258 0.8477,1.74835 0.2119,0.63576 0.3885,1.25386 0.5298,1.8543 0.1766,0.56512 0.2825,0.93598 0.3179,1.11258 0.5651,2.33114 0.7947,4.96244 0.6887,7.89404 0,2.6137 -0.0353,4.5386 -0.106,5.7748 0,0.7418 0.0707,1.8543 0.212,3.3378 0.1412,1.6247 0.1942,2.8786 0.1589,3.7616 l 0.053,0.6357 c 0,0.8124 -0.3179,1.2186 -0.9537,1.2186 -0.4238,0 -1.2362,0.0353 -2.437,0.1059 -1.2009,0.0707 -2.0663,0.106 -2.5961,0.106 -0.3532,0 -0.671,0.0177 -0.9536,0.053 -0.2826,0.0353 -0.5475,0.053 -0.7947,0.053 -0.1413,0 -0.2826,-0.053 -0.4239,-0.159 -0.1059,-0.1413 -0.1589,-0.3002 -0.1589,-0.4768 l -0.106,-0.6358 c -0.0353,-0.0353 -0.0706,-0.1059 -0.1059,-0.2119 0,-0.1059 -0.0353,-0.1942 -0.106,-0.2649 C 35.6213,31.2759 33.0076,32 29.7582,32 Z m -0.5298,-5.0331 c 1.6953,0 3.2671,-0.1766 4.7152,-0.5298 1.4481,-0.3532 2.6313,-0.8477 3.5497,-1.4835 l -0.106,-4.2384 c -1.2009,-0.2119 -2.1192,-0.3355 -2.755,-0.3708 -0.6004,-0.0707 -1.5364,-0.106 -2.8079,-0.106 -1.5188,0 -2.9669,0.2826 -4.3444,0.8477 -1.3421,0.5651 -2.0662,1.766 -2.1722,3.6026 -0.0706,0.6005 0.1943,1.1303 0.7947,1.5894 0.6005,0.4592 1.6424,0.6888 3.1259,0.6888 z"
         fill="#f53e31"
         id="path2"
         style="fill:#ef4444;fill-opacity:1" /><path
         d="M 57.2658,32 C 55.3135,32 53.6096,31.3611 52.1543,30.0832 50.7344,28.8053 49.634,27.0128 48.8531,24.7055 48.1077,22.3982 47.735,19.736 47.735,16.7188 c 0,-0.7099 0.0532,-2.7155 0.1597,-6.0166 0.071,-0.92294 0.1065,-1.54413 0.1065,-1.8636 L 47.948,7.77371 c 0,-0.67443 -0.0178,-1.57959 -0.0533,-2.71547 -0.0355,-1.17138 -0.0532,-2.64448 -0.0532,-4.419304 0,-0.248475 0.1775,-0.390461 0.5324,-0.425957 C 49.2613,0.141987 50.344,0.088742 51.6218,0.0532439 52.9352,0.017748 54.1243,0 55.1892,0 c 0.284,0 0.4615,0.053245 0.5325,0.159735 0.071,0.070992 0.1065,0.212978 0.1065,0.425957 l -0.0533,0.905158 0.0533,1.11814 c 0,0.9229 -0.0533,1.8813 -0.1598,2.8752 -0.1065,0.95841 -0.1597,1.56185 -0.1597,1.81032 0,0.85191 0.0532,1.89906 0.1597,3.14139 0.0355,0.497 0.071,1.0649 0.1065,1.7039 0.0355,0.6389 0.0533,1.3133 0.0533,2.0233 l -0.0533,3.9401 c 0,2.2007 0.2662,3.7803 0.7987,4.7387 0.5324,0.9229 1.5441,1.3844 3.0349,1.3844 0.4615,0 1.0117,-0.1065 1.6506,-0.3195 0.6744,-0.2485 1.2601,-0.5502 1.7571,-0.9051 0.0355,-1.5974 0.0532,-3.3012 0.0532,-5.1115 0,-0.8519 0.0178,-1.6328 0.0533,-2.3428 0.0355,-0.7099 0.071,-1.3311 0.1065,-1.8635 0.1065,-1.4909 0.1597,-2.893 0.1597,-4.20636 0,-0.53245 -0.071,-1.5441 -0.213,-3.03494 -0.142,-1.70383 -0.213,-2.9817 -0.213,-3.83361 0,-0.14199 -0.0177,-0.46146 -0.0532,-0.95841 0,-0.53244 0.0887,-0.922903 0.2662,-1.171379 0.1775,-0.283971 0.4615,-0.4259571 0.8519,-0.4259571 0.142,0 0.497,0.035497 1.0649,0.1064911 0.6035,0.070992 1.2069,0.106488 1.8103,0.106488 0.6745,0 1.2602,-0.017748 1.7571,-0.053244 0.5325,-0.035496 0.9407,-0.053244 1.2246,-0.053244 0.5325,0 0.7987,0.212978 0.7987,0.638933 0,0.035498 -0.0177,0.12424 -0.0532,0.266222 0,0.10649 0,0.30172 0,0.58569 l 0.0532,3.35441 c 0.142,4.54354 0.213,7.82691 0.213,9.85021 l -0.0533,2.396 0.0533,4.4193 c 0.071,2.4848 0.1065,4.3306 0.1065,5.5375 0,1.2424 -0.0178,2.112 -0.0533,2.609 l 0.0533,0.7454 c 0,0.426 -0.142,0.6389 -0.426,0.6389 -0.2485,0 -0.6034,-0.0177 -1.0649,-0.0532 -0.4614,-0.0355 -1.0294,-0.0533 -1.7038,-0.0533 l -2.3428,0.0533 c -0.3194,0.0355 -0.6921,0.0532 -1.1181,0.0532 -0.1775,0 -0.3372,-0.0355 -0.4792,-0.1065 -0.1065,-0.1064 -0.1597,-0.2307 -0.1597,-0.3727 l -0.213,-0.5324 c -0.7809,0.6034 -1.6151,1.0471 -2.5025,1.3311 C 60.1055,31.8403 58.8631,32 57.2658,32 Z"
         fill="#f53e31"
         id="path3"
         style="fill:#ef4444;fill-opacity:1" /></g></g></svg>
